# Exported from Wings 3D 1.5.3
mtllib player.mtl
o Cube1
#70 vertices, 136 faces
v -0.10007502 0.50000000 -3.9930161e-2
v -0.10002266 0.50000000 3.5069821e-2
v -9.9883039e-2 0.50000000 0.23506977
v -9.9830679e-2 0.50000000 0.31006975
v -0.30007498 0.50000000 -3.9790534e-2
v -0.30002262 0.50000000 3.5209447e-2
v -0.29988299 0.50000000 0.23520940
v -0.29983063 0.50000000 0.31020938
v -9.9883039e-2 0.0000000e+0 0.23506977
v -0.29988299 0.0000000e+0 0.23520940
v -0.30002262 0.0000000e+0 3.5209447e-2
v -0.10002266 0.0000000e+0 3.5069821e-2
v -0.20007500 1.37500000 -3.9860347e-2
v -0.19983065 1.37500000 0.31013957
v -0.19984811 1.37500000 0.28513957
v -0.20005755 1.37500000 -1.4860354e-2
v -0.20005755 1.62500000 -1.4860354e-2
v -0.19984811 1.62500000 0.28513957
v 1.5184363e-4 1.62500000 0.28499995
v -5.7595861e-5 1.62500000 -1.4999980e-2
v 1.5184363e-4 1.37500000 0.28499995
v -5.7595861e-5 1.37500000 -1.4999980e-2
v 1.6929692e-4 1.37500000 0.30999994
v -7.5049152e-5 1.37500000 -3.9999974e-2
v 1.6929692e-4 0.50000000 0.30999994
v 1.1693705e-4 0.50000000 0.23499996
v -2.2689278e-5 0.50000000 3.5000008e-2
v -7.5049152e-5 0.50000000 -3.9999974e-2
v -0.29983063 1.37500000 0.31020938
v -0.30007498 1.37500000 -3.9790534e-2
v -0.30007498 1.12500000 -3.9790534e-2
v -0.29983063 1.12500000 0.31020938
v -0.42507495 1.12500000 -3.9703268e-2
v -0.42483060 1.12500000 0.31029665
v -0.42483060 1.37500000 0.31029665
v -0.42507495 1.37500000 -3.9703268e-2
v -0.42542401 1.25000000 -0.53970315
v -0.42542401 1.37500000 -0.53970315
v -0.30042404 1.37500000 -0.53979041
v -0.30042404 1.25000000 -0.53979041
v 9.9924926e-2 0.50000000 -4.0069787e-2
v 9.9977286e-2 0.50000000 3.4930195e-2
v 0.10011691 0.50000000 0.23493015
v 0.10016927 0.50000000 0.30993013
v 0.29992488 0.50000000 -4.0209413e-2
v 0.29997724 0.50000000 3.4790568e-2
v 0.30011686 0.50000000 0.23479052
v 0.30016922 0.50000000 0.30979050
v 0.10011691 -4.6084747e-18 0.23493015
v 0.30011686 -1.3821083e-17 0.23479052
v 0.29997724 -1.3821083e-17 3.4790568e-2
v 9.9977286e-2 -4.6084747e-18 3.4930195e-2
v 0.19992490 1.37500000 -4.0139600e-2
v 0.20016925 1.37500000 0.30986031
v 0.20015179 1.37500000 0.28486032
v 0.19994236 1.37500000 -1.5139606e-2
v 0.19994236 1.62500000 -1.5139606e-2
v 0.20015179 1.62500000 0.28486032
v 0.30016922 1.37500000 0.30979050
v 0.29992488 1.37500000 -4.0209413e-2
v 0.29992488 1.12500000 -4.0209413e-2
v 0.30016922 1.12500000 0.30979050
v 0.42492485 1.12500000 -4.0296680e-2
v 0.42516919 1.12500000 0.30970323
v 0.42516919 1.37500000 0.30970323
v 0.42492485 1.37500000 -4.0296680e-2
v 0.42457578 1.25000000 -0.54029656
v 0.42457578 1.37500000 -0.54029656
v 0.29957581 1.37500000 -0.54020929
v 0.29957581 1.25000000 -0.54020929
vn 0.0000000e+0 -1.00000000 -2.0238441e-16
vn 0.0000000e+0 -1.00000000 4.3368087e-17
vn 0.0000000e+0 -1.00000000 -2.3129646e-16
vn 0.0000000e+0 -1.00000000 -2.3129646e-16
vn -6.9813164e-4 -2.2178711e-17 -0.99999976
vn 0.0000000e+0 -1.00000000 -2.3129646e-16
vn -6.9813164e-4 -2.2178711e-17 -0.99999976
vn 0.0000000e+0 -1.00000000 -2.3129646e-16
vn 0.0000000e+0 -1.00000000 -6.9388939e-16
vn 0.0000000e+0 -1.00000000 -6.9388939e-16
vn 0.0000000e+0 -1.00000000 -6.9388939e-16
vn 0.99999976 0.0000000e+0 -6.9813164e-4
vn -6.9813164e-4 0.0000000e+0 -0.99999976
vn 0.0000000e+0 -1.00000000 -1.5419764e-16
vn 6.9813164e-4 0.0000000e+0 0.99999976
vn 0.99999976 0.0000000e+0 -6.9813164e-4
vn 0.0000000e+0 -1.00000000 -1.5419764e-16
vn 0.0000000e+0 -1.00000000 -1.5419764e-16
vn 0.99999976 0.0000000e+0 -6.9813164e-4
vn 0.0000000e+0 -1.00000000 -1.5419764e-16
vn 0.0000000e+0 -1.00000000 -1.5419764e-16
vn 0.0000000e+0 -1.00000000 -1.5419764e-16
vn 6.9813164e-4 0.0000000e+0 0.99999976
vn 0.0000000e+0 -1.00000000 -4.6259293e-16
vn 0.0000000e+0 -1.00000000 -4.6259293e-16
vn 6.9813164e-4 -4.4357421e-17 0.99999976
vn 6.9813164e-4 -4.4357421e-17 0.99999976
vn 0.0000000e+0 -1.00000000 0.0000000e+0
vn -6.9813164e-4 -4.4398079e-17 -0.99999976
vn -0.99999976 -1.4802974e-16 6.9813164e-4
vn 0.0000000e+0 -1.00000000 -4.6259293e-16
vn -0.99999976 0.0000000e+0 6.9813164e-4
vn -6.9813164e-4 0.0000000e+0 -0.99999976
vn 0.0000000e+0 -1.00000000 -4.6259293e-16
vn -0.99999976 0.0000000e+0 6.9813164e-4
vn -6.9813164e-4 0.0000000e+0 -0.99999976
vn -0.99999976 -5.4630022e-17 6.9813164e-4
vn -0.99999976 -5.4630022e-17 6.9813164e-4
vn -0.99999976 -5.4630022e-17 6.9813164e-4
vn 0.0000000e+0 -1.00000000 0.0000000e+0
vn -0.99999976 5.5511151e-17 6.9813164e-4
vn -0.99999976 0.0000000e+0 6.9813164e-4
vn 6.9813164e-4 0.0000000e+0 0.99999976
vn -0.99999976 5.5511151e-17 6.9813164e-4
vn 0.0000000e+0 -1.00000000 -4.6259293e-16
vn -0.99999976 0.0000000e+0 6.9813164e-4
vn 0.0000000e+0 -1.00000000 -4.6259293e-16
vn 6.9813164e-4 0.0000000e+0 0.99999976
vn 6.9813164e-4 0.0000000e+0 0.99999976
vn 0.99999976 0.0000000e+0 -6.9813164e-4
vn 0.0000000e+0 -1.00000000 0.0000000e+0
vn 0.0000000e+0 -1.00000000 0.0000000e+0
vn 6.9813164e-4 0.0000000e+0 0.99999976
vn -0.99999976 0.0000000e+0 6.9813164e-4
vn -0.99999976 0.0000000e+0 6.9813164e-4
vn 0.0000000e+0 -1.00000000 0.0000000e+0
vn 6.9813164e-4 0.0000000e+0 0.99999976
vn 0.0000000e+0 -1.00000000 0.0000000e+0
vn -0.99999976 0.0000000e+0 6.9813164e-4
vn -6.9813164e-4 0.0000000e+0 -0.99999976
vn 0.0000000e+0 -1.00000000 0.0000000e+0
vn -6.9813164e-4 0.0000000e+0 -0.99999976
vn 0.99999976 0.0000000e+0 -6.9813164e-4
vn 0.0000000e+0 -1.00000000 0.0000000e+0
vn 0.99999976 0.0000000e+0 -6.9813164e-4
vn -6.9813164e-4 0.0000000e+0 -0.99999976
vn 0.0000000e+0 1.00000000 9.0350181e-19
vn 0.0000000e+0 1.00000000 9.0350181e-19
vn -6.9813164e-4 -1.0377848e-16 -0.99999976
vn -6.9813164e-4 -1.0377848e-16 -0.99999976
vn 0.0000000e+0 1.00000000 9.0350181e-19
vn 0.0000000e+0 1.00000000 1.3552527e-18
vn 6.9813164e-4 1.1102908e-16 0.99999976
vn 6.9813164e-4 1.1102908e-16 0.99999976
vn 0.0000000e+0 1.00000000 1.3552527e-18
vn 0.0000000e+0 1.00000000 3.3558639e-19
vn -0.99999976 0.0000000e+0 6.9813164e-4
vn 6.9813164e-4 0.0000000e+0 0.99999976
vn 0.0000000e+0 1.00000000 3.3558639e-19
vn -0.99999976 0.0000000e+0 6.9813164e-4
vn 6.9813164e-4 0.0000000e+0 0.99999976
vn 0.0000000e+0 1.00000000 3.3558639e-19
vn 0.0000000e+0 1.00000000 3.3558639e-19
vn 0.0000000e+0 1.00000000 3.3558639e-19
vn 0.0000000e+0 1.00000000 -1.5058364e-18
vn -6.9813164e-4 0.0000000e+0 -0.99999976
vn 0.0000000e+0 1.00000000 -1.5058364e-18
vn -0.99999976 0.0000000e+0 6.9813164e-4
vn 0.0000000e+0 1.00000000 -1.5058364e-18
vn -0.99999976 0.0000000e+0 6.9813164e-4
vn 0.0000000e+0 1.00000000 1.8070036e-18
vn -6.9813164e-4 0.0000000e+0 -0.99999976
vn -0.99999976 0.0000000e+0 6.9813164e-4
vn 0.0000000e+0 1.00000000 1.8070036e-18
vn -6.9813164e-4 0.0000000e+0 -0.99999976
vn -0.99999976 0.0000000e+0 6.9813164e-4
vn 6.9813164e-4 0.0000000e+0 0.99999976
vn 0.0000000e+0 1.00000000 3.6140072e-18
vn 6.9813164e-4 -1.6940659e-20 0.99999976
vn 0.0000000e+0 1.00000000 -1.5901632e-16
vn 6.9813164e-4 -1.6940659e-20 0.99999976
vn 0.0000000e+0 1.00000000 -1.5901632e-16
vn 0.0000000e+0 1.00000000 -1.5901632e-16
vn 6.9813164e-4 -1.6940659e-20 0.99999976
vn 0.0000000e+0 1.00000000 -1.5901632e-16
vn 6.9813164e-4 -1.6940659e-20 0.99999976
vn 0.0000000e+0 1.00000000 8.6736174e-17
vn -6.9813164e-4 0.0000000e+0 -0.99999976
vn 0.0000000e+0 1.00000000 8.6736174e-17
vn -6.9813164e-4 0.0000000e+0 -0.99999976
vn 0.0000000e+0 1.00000000 6.0850847e-16
vn 6.9813164e-4 0.0000000e+0 0.99999976
vn 6.9813164e-4 0.0000000e+0 0.99999976
vn 0.0000000e+0 1.00000000 6.0850847e-16
vn 0.0000000e+0 1.00000000 -2.4486028e-15
vn -6.9813164e-4 1.6940659e-20 -0.99999976
vn 0.0000000e+0 1.00000000 -2.4486028e-15
vn -6.9813164e-4 1.6940659e-20 -0.99999976
vn -6.9813164e-4 1.6940659e-20 -0.99999976
vn 0.0000000e+0 1.00000000 -2.4486028e-15
vn 0.0000000e+0 1.00000000 -2.4486028e-15
vn -6.9813164e-4 1.6940659e-20 -0.99999976
vn 0.0000000e+0 1.00000000 6.5119893e-16
vn 0.0000000e+0 1.00000000 6.5119893e-16
vn 6.9813164e-4 1.3881579e-16 0.99999976
vn 6.9813164e-4 1.3881579e-16 0.99999976
vn 6.9813164e-4 1.3881579e-16 0.99999976
vn 6.9813164e-4 1.3881579e-16 0.99999976
vn 0.0000000e+0 1.00000000 6.5119893e-16
vn 0.0000000e+0 1.00000000 6.5119893e-16
vn -6.9813164e-4 -7.6842829e-17 -0.99999976
vn -6.9813164e-4 -7.6842829e-17 -0.99999976
vn -6.9813164e-4 -7.6842829e-17 -0.99999976
vn -6.9813164e-4 -7.6842829e-17 -0.99999976
vn 0.0000000e+0 1.00000000 -9.0605420e-15
vn 0.0000000e+0 1.00000000 -9.0605420e-15
vn 0.0000000e+0 -1.00000000 -1.1564823e-16
vn 0.0000000e+0 -1.00000000 -1.1564823e-16
vn 6.9813164e-4 -2.2211947e-17 0.99999976
vn 6.9813164e-4 -2.2211947e-17 0.99999976
vn 0.0000000e+0 -1.00000000 -1.1564823e-16
vn 6.9813164e-4 -2.2211947e-17 0.99999976
vn 6.9813164e-4 -2.2211947e-17 0.99999976
vn 0.0000000e+0 -1.00000000 -1.1564823e-16
vn -6.9813164e-4 -2.8887212e-17 -0.99999976
vn -6.9813164e-4 -2.8887212e-17 -0.99999976
vn 0.0000000e+0 -1.00000000 1.2721305e-15
vn -6.9813164e-4 -2.8887212e-17 -0.99999976
vn -6.9813164e-4 -2.8887212e-17 -0.99999976
vn 0.0000000e+0 -1.00000000 1.2721305e-15
vn 6.9813164e-4 0.0000000e+0 0.99999976
vn 0.0000000e+0 1.00000000 4.1302940e-19
vn 0.0000000e+0 1.00000000 4.1302940e-19
vn 0.0000000e+0 1.00000000 4.1302940e-19
vn 6.9813164e-4 0.0000000e+0 0.99999976
vn 0.0000000e+0 1.00000000 -1.4751050e-19
vn 0.0000000e+0 1.00000000 -1.4751050e-19
vn 0.0000000e+0 1.00000000 -1.4751050e-19
vn 0.99999976 -1.5541458e-16 -6.9813164e-4
vn -6.9813164e-4 -1.1058862e-16 -0.99999976
vn 0.0000000e+0 1.00000000 -1.4751050e-19
vn 0.0000000e+0 1.00000000 -1.4751050e-19
vn 0.0000000e+0 1.00000000 -1.4751050e-19
vn 0.0000000e+0 1.00000000 -1.4751050e-19
vn 0.99999976 -1.5541458e-16 -6.9813164e-4
vn -6.9813164e-4 -6.3066855e-17 -0.99999976
vn -0.99999976 -1.3745618e-16 6.9813164e-4
vn -0.99999976 -1.3745618e-16 6.9813164e-4
vn -6.9813164e-4 -6.3066855e-17 -0.99999976
vn -6.9813164e-4 -6.3066855e-17 -0.99999976
vn -6.9813164e-4 -6.3066855e-17 -0.99999976
vn -6.9813164e-4 -6.3066855e-17 -0.99999976
vn 0.99999976 -3.1082915e-16 -6.9813164e-4
vn -8.5300003e-5 -0.99250756 -0.12218323
vn -8.5300003e-5 -0.99250756 -0.12218323
vn 6.9813164e-4 5.0775478e-17 0.99999976
vn -0.99999976 -5.2867763e-18 6.9813164e-4
vn 0.0000000e+0 -1.00000000 -2.9582284e-31
vn 6.9813164e-4 5.0775478e-17 0.99999976
vn 6.9813164e-4 5.0775478e-17 0.99999976
vn 6.9813164e-4 5.0775478e-17 0.99999976
vn 6.9813164e-4 5.0775478e-17 0.99999976
vn 6.9813164e-4 5.0775478e-17 0.99999976
vn -0.99999976 -5.2867763e-18 6.9813164e-4
vn -0.99999976 -5.2867763e-18 6.9813164e-4
vn 6.9813164e-4 5.0775478e-17 0.99999976
vn 0.0000000e+0 -1.00000000 -2.9582284e-31
vn -0.99999976 3.3345509e-16 6.9813164e-4
vn -8.5300003e-5 -0.99250756 -0.12218323
vn -0.99999976 3.3345509e-16 6.9813164e-4
vn -8.5300003e-5 -0.99250756 -0.12218323
vn -0.99999976 3.3345509e-16 6.9813164e-4
vn -8.5300003e-5 -0.99250756 -0.12218323
vn -0.99999976 3.3345509e-16 6.9813164e-4
vn -8.5300003e-5 -0.99250756 -0.12218323
vn 0.0000000e+0 -1.00000000 3.1472840e-16
vn 6.9813164e-4 2.2213666e-16 0.99999976
vn -0.99999976 6.3441316e-16 6.9813164e-4
vn -0.99999976 3.1720658e-16 6.9813164e-4
vn 6.9813164e-4 1.1106833e-16 0.99999976
vn 0.0000000e+0 1.00000000 4.6222319e-33
vn -0.99999976 3.1720658e-16 6.9813164e-4
vn 0.0000000e+0 1.00000000 4.6222319e-33
vn 6.9813164e-4 1.1106833e-16 0.99999976
vn -0.99999976 3.4970361e-16 6.9813164e-4
vn 0.0000000e+0 1.00000000 2.4781764e-18
vn 0.0000000e+0 1.00000000 2.4781764e-18
vn -0.99999976 3.4970361e-16 6.9813164e-4
vn -0.99999976 0.0000000e+0 6.9813164e-4
vn -1.6932179e-4 -0.97014250 -0.24253557
vn -6.9813164e-4 0.0000000e+0 -0.99999976
vn -6.9813164e-4 0.0000000e+0 -0.99999976
vn -0.99999976 3.4970361e-16 6.9813164e-4
vn 0.0000000e+0 1.00000000 0.0000000e+0
vn 0.0000000e+0 1.00000000 0.0000000e+0
vn -6.9813164e-4 0.0000000e+0 -0.99999976
vn -0.99999976 3.4970361e-16 6.9813164e-4
vn -6.9813164e-4 0.0000000e+0 -0.99999976
vn 0.0000000e+0 1.00000000 0.0000000e+0
vn 0.99999976 0.0000000e+0 -6.9813164e-4
vn -6.9813164e-4 0.0000000e+0 -0.99999976
vn 0.99999976 -1.5541458e-16 -6.9813164e-4
vn -1.6932179e-4 -0.97014250 -0.24253557
vn -6.9813164e-4 0.0000000e+0 -0.99999976
vn 0.99999976 -1.5541458e-16 -6.9813164e-4
vn -1.6932179e-4 -0.97014250 -0.24253557
vn 0.0000000e+0 -1.00000000 1.7347235e-16
vn 0.0000000e+0 -1.00000000 1.7347235e-16
vn 0.0000000e+0 -1.00000000 1.7347235e-16
vn -6.9813164e-4 -1.6540859e-17 -0.99999976
vn -6.9813164e-4 -1.6540859e-17 -0.99999976
vn 0.0000000e+0 -1.00000000 1.7347235e-16
vn 0.0000000e+0 -1.00000000 -2.3129646e-16
vn 0.0000000e+0 -1.00000000 -2.3129646e-16
vn -6.9813164e-4 6.7762636e-20 -0.99999976
vn 0.0000000e+0 -1.00000000 -2.3129646e-16
vn -0.99999976 0.0000000e+0 6.9813164e-4
vn 0.0000000e+0 -1.00000000 1.9274705e-17
vn 6.9813164e-4 0.0000000e+0 0.99999976
vn -0.99999976 6.9388939e-17 6.9813164e-4
vn 0.0000000e+0 -1.00000000 1.9274705e-17
vn 0.0000000e+0 -1.00000000 1.9274705e-17
vn 0.0000000e+0 -1.00000000 1.9274705e-17
vn 6.9813164e-4 0.0000000e+0 0.99999976
vn 0.0000000e+0 -1.00000000 1.9274705e-17
vn 0.0000000e+0 -1.00000000 1.9274705e-17
vn -0.99999976 6.9388939e-17 6.9813164e-4
vn 0.0000000e+0 -1.00000000 4.6259293e-16
vn 6.9813164e-4 -9.4867690e-20 0.99999976
vn 6.9813164e-4 -9.4867690e-20 0.99999976
vn 0.0000000e+0 -1.00000000 4.6259293e-16
vn 0.0000000e+0 -1.00000000 0.0000000e+0
vn 0.99999976 -1.4802974e-16 -6.9813164e-4
vn -6.9813164e-4 -4.4343869e-17 -0.99999976
vn 0.0000000e+0 -1.00000000 0.0000000e+0
vn 0.99999976 0.0000000e+0 -6.9813164e-4
vn -6.9813164e-4 3.3881318e-20 -0.99999976
vn 0.99999976 -2.4054832e-16 -6.9813164e-4
vn 0.99999976 0.0000000e+0 -6.9813164e-4
vn -6.9813164e-4 3.3881318e-20 -0.99999976
vn 0.0000000e+0 -1.00000000 0.0000000e+0
vn 0.99999976 -2.4054832e-16 -6.9813164e-4
vn 0.0000000e+0 -1.00000000 0.0000000e+0
vn 6.9813164e-4 0.0000000e+0 0.99999976
vn 0.99999976 0.0000000e+0 -6.9813164e-4
vn 0.99999976 -2.0265976e-16 -6.9813164e-4
vn 0.99999976 -2.0265976e-16 -6.9813164e-4
vn 0.99999976 -2.0265976e-16 -6.9813164e-4
vn 0.0000000e+0 -1.00000000 4.6259293e-16
vn 6.9813164e-4 -1.0842022e-19 0.99999976
vn 0.99999976 -1.4802974e-16 -6.9813164e-4
vn 0.0000000e+0 -1.00000000 4.6259293e-16
vn 6.9813164e-4 0.0000000e+0 0.99999976
vn -0.99999976 1.3877788e-16 6.9813164e-4
vn -4.6063029e-17 -1.00000000 3.2158066e-20
vn -4.6063029e-17 -1.00000000 3.2158066e-20
vn 6.9813164e-4 0.0000000e+0 0.99999976
vn 0.99999976 0.0000000e+0 -6.9813164e-4
vn 6.9813164e-4 0.0000000e+0 0.99999976
vn 0.99999976 0.0000000e+0 -6.9813164e-4
vn -4.6063029e-17 -1.00000000 3.2158066e-20
vn -4.6063029e-17 -1.00000000 3.2158066e-20
vn 0.99999976 0.0000000e+0 -6.9813164e-4
vn -6.9813164e-4 0.0000000e+0 -0.99999976
vn -4.6063029e-17 -1.00000000 3.2158066e-20
vn -6.9813164e-4 3.3881318e-20 -0.99999976
vn -0.99999976 6.9388939e-17 6.9813164e-4
vn -6.9813164e-4 3.3881318e-20 -0.99999976
vn -4.6063029e-17 -1.00000000 3.2158066e-20
vn -0.99999976 6.9388939e-17 6.9813164e-4
vn -6.9813164e-4 -9.7476552e-17 -0.99999976
vn 0.0000000e+0 1.00000000 -3.2657073e-15
vn -6.9813164e-4 -9.7476552e-17 -0.99999976
vn 0.0000000e+0 1.00000000 -3.2657073e-15
vn 0.0000000e+0 1.00000000 -3.2657073e-15
vn 0.0000000e+0 1.00000000 6.9253414e-16
vn 0.0000000e+0 1.00000000 6.9253414e-16
vn 6.9813164e-4 1.6662832e-16 0.99999976
vn 6.9813164e-4 1.6662832e-16 0.99999976
vn 0.0000000e+0 1.00000000 7.1015242e-16
vn 0.99999976 0.0000000e+0 -6.9813164e-4
vn 6.9813164e-4 -3.3881318e-20 0.99999976
vn 0.0000000e+0 1.00000000 7.1015242e-16
vn 6.9813164e-4 -3.3881318e-20 0.99999976
vn 0.99999976 0.0000000e+0 -6.9813164e-4
vn 0.0000000e+0 1.00000000 7.1015242e-16
vn 0.0000000e+0 1.00000000 7.1015242e-16
vn 0.0000000e+0 1.00000000 2.0399457e-15
vn -6.9813164e-4 6.7762636e-20 -0.99999976
vn 0.99999976 0.0000000e+0 -6.9813164e-4
vn 0.0000000e+0 1.00000000 2.0399457e-15
vn 0.0000000e+0 1.00000000 2.0399457e-15
vn 0.0000000e+0 1.00000000 2.0399457e-15
vn 0.99999976 0.0000000e+0 -6.9813164e-4
vn 0.0000000e+0 1.00000000 -3.1983964e-16
vn -6.9813164e-4 3.3881318e-20 -0.99999976
vn 0.99999976 0.0000000e+0 -6.9813164e-4
vn -6.9813164e-4 3.3881318e-20 -0.99999976
vn 0.0000000e+0 1.00000000 -3.1983964e-16
vn 0.99999976 0.0000000e+0 -6.9813164e-4
vn 6.9813164e-4 -6.7762636e-20 0.99999976
vn 0.0000000e+0 1.00000000 -8.1315163e-16
vn 0.0000000e+0 1.00000000 -3.2835837e-17
vn 6.9813164e-4 0.0000000e+0 0.99999976
vn 0.0000000e+0 1.00000000 -3.2835837e-17
vn 6.9813164e-4 0.0000000e+0 0.99999976
vn 0.0000000e+0 1.00000000 -3.2835837e-17
vn 0.0000000e+0 1.00000000 -3.2835837e-17
vn 0.0000000e+0 1.00000000 -3.2835837e-17
vn 6.9813164e-4 0.0000000e+0 0.99999976
vn -6.9813164e-4 -1.1140177e-16 -0.99999976
vn 0.0000000e+0 1.00000000 -2.0135183e-17
vn 0.0000000e+0 1.00000000 -2.0135183e-17
vn 0.0000000e+0 1.00000000 -2.0135183e-17
vn -0.99999976 -3.1089581e-16 6.9813164e-4
vn 0.0000000e+0 1.00000000 -2.0135183e-17
vn -6.9813164e-4 -5.8293315e-17 -0.99999976
vn 0.99999976 -2.0265976e-16 -6.9813164e-4
vn -8.5300003e-5 -0.99250756 -0.12218323
vn -0.99999976 -1.5544790e-16 6.9813164e-4
vn -8.5300003e-5 -0.99250756 -0.12218323
vn -6.9813164e-4 -5.8293315e-17 -0.99999976
vn -6.9813164e-4 -5.8293315e-17 -0.99999976
vn -6.9813164e-4 -5.8293315e-17 -0.99999976
vn -6.9813164e-4 -5.8293315e-17 -0.99999976
vn 0.99999976 -2.0265976e-16 -6.9813164e-4
vn 0.99999976 -2.0265976e-16 -6.9813164e-4
vn -0.99999976 -1.5544790e-16 6.9813164e-4
vn -8.5300003e-5 -0.99250756 -0.12218323
vn -8.5300003e-5 -0.99250756 -0.12218323
vn 6.9813164e-4 5.5511151e-17 0.99999976
vn 6.9813164e-4 5.5511151e-17 0.99999976
vn 6.9813164e-4 5.5511151e-17 0.99999976
vn 6.9813164e-4 5.5511151e-17 0.99999976
vn 6.9813164e-4 5.5511151e-17 0.99999976
vn 0.99999976 -1.3745618e-16 -6.9813164e-4
vn 0.99999976 -1.3745618e-16 -6.9813164e-4
vn 6.9813164e-4 5.5511151e-17 0.99999976
vn 0.0000000e+0 -1.00000000 1.2663481e-15
vn -8.5300003e-5 -0.99250756 -0.12218323
vn 0.99999976 4.4489891e-16 -6.9813164e-4
vn -8.5300003e-5 -0.99250756 -0.12218323
vn 0.99999976 4.4489891e-16 -6.9813164e-4
vn 0.99999976 3.1720658e-16 -6.9813164e-4
vn 0.0000000e+0 -1.00000000 1.6763294e-30
vn 6.9813164e-4 0.0000000e+0 0.99999976
vn 0.99999976 3.1720658e-16 -6.9813164e-4
vn 6.9813164e-4 0.0000000e+0 0.99999976
vn 0.0000000e+0 -1.00000000 1.6763294e-30
vn 0.99999976 0.0000000e+0 -6.9813164e-4
vn 6.9813164e-4 0.0000000e+0 0.99999976
vn 0.0000000e+0 1.00000000 -3.2216293e-16
vn 0.99999976 2.2244946e-16 -6.9813164e-4
vn 0.0000000e+0 1.00000000 -1.4791142e-31
vn 0.99999976 2.2244946e-16 -6.9813164e-4
vn 0.0000000e+0 1.00000000 -1.4791142e-31
vn 0.99999976 2.2244946e-16 -6.9813164e-4
vn 0.0000000e+0 1.00000000 -1.4791142e-31
vn 0.99999976 2.2244946e-16 -6.9813164e-4
vn 0.0000000e+0 1.00000000 -1.4791142e-31
vn -6.9813164e-4 -4.3368087e-19 -0.99999976
vn 0.99999976 1.2769234e-16 -6.9813164e-4
vn -1.6932179e-4 -0.97014250 -0.24253557
vn -1.6932179e-4 -0.97014250 -0.24253557
vn -6.9813164e-4 -4.3368087e-19 -0.99999976
vn 0.99999976 1.2769234e-16 -6.9813164e-4
vn 0.99999976 0.0000000e+0 -6.9813164e-4
vn 0.0000000e+0 1.00000000 0.0000000e+0
vn -6.9813164e-4 0.0000000e+0 -0.99999976
vn -6.9813164e-4 -4.3368087e-19 -0.99999976
vn 0.0000000e+0 1.00000000 0.0000000e+0
vn -0.99999976 -1.5544790e-16 6.9813164e-4
vn 0.0000000e+0 1.00000000 0.0000000e+0
vn -0.99999976 -1.5544790e-16 6.9813164e-4
vn -6.9813164e-4 -4.3368087e-19 -0.99999976
vn -6.9813164e-4 -8.6736174e-19 -0.99999976
vn -0.99999976 0.0000000e+0 6.9813164e-4
vn -1.6932179e-4 -0.97014250 -0.24253557
g Cube1_default2
usemtl default2
s 1
f 1//7 31//169 28//148
f 3//19 12//65 2//12
f 5//29 31//166 1//5
f 6//35 10//55 7//42
f 9//50 12//63 3//16
f 10//54 6//32 11//59
f 13//70 31//172 30//160
f 24//133 31//170 13//69
f 24//132 61//344 28//146
f 28//149 31//171 24//134
f 28//145 61//343 41//230
f 38//216 40//224 37//211
f 39//218 40//221 38//212
f 41//231 61//345 45//254
f 42//237 52//290 43//247
f 43//240 52//287 49//274
f 47//265 50//280 46//259
f 51//283 46//256 50//278
f 53//293 61//342 24//131
f 60//331 61//337 53//291
f 61//350 64//369 62//359
f 61//349 67//384 63//362
f 64//365 61//339 63//360
f 67//383 61//341 70//398
s 2
f 2//13 12//66 6//36
f 6//39 31//168 5//30
f 7//43 10//57 3//23
f 7//44 32//184 6//37
f 8//46 32//177 7//41
f 9//49 3//15 10//53
f 11//60 6//33 12//62
f 31//167 6//38 32//185
f 31//173 40//225 30//165
f 34//198 35//202 33//192
f 36//205 33//188 35//199
f 36//208 38//217 33//194
f 37//209 33//190 38//213
f 39//220 30//159 40//222
f 43//244 50//279 47//264
f 45//253 61//338 46//258
f 46//260 52//288 42//235
f 46//262 61//346 47//266
f 47//268 62//357 48//271
f 50//277 43//239 49//273
f 52//286 46//257 51//284
f 60//335 69//394 61//348
f 62//356 47//267 61//347
f 63//361 66//377 64//367
f 63//363 67//386 66//379
f 64//364 66//373 65//370
f 68//387 66//375 67//382
f 70//397 61//340 69//392
s 3
f 1//4 27//2 2//9
f 2//11 6//34 1//6
f 2//10 27//2 3//17
f 3//18 25//137 4//24
f 3//22 27//2 26//1
f 4//25 8//47 3//20
f 5//28 1//3 6//31
f 7//40 3//14 8//45
f 10//56 12//64 9//51
f 11//58 12//61 10//52
f 26//1 25//141 3//21
f 26//1 43//243 25//144
f 27//2 43//246 26//1
f 28//150 27//2 1//8
f 28//147 41//232 27//2
f 32//187 33//195 31//175
f 33//189 32//178 34//196
f 33//193 40//226 31//174
f 37//210 40//223 33//191
f 41//229 46//261 42//236
f 42//233 27//2 41//228
f 43//241 27//2 42//234
f 43//245 48//272 44//251
f 44//248 25//138 43//242
f 46//255 41//227 45//252
f 48//269 43//238 47//263
f 49//275 52//289 50//281
f 50//276 52//285 51//282
f 67//385 69//395 68//389
f 69//390 67//381 70//396
s 4
f 13//71 22//121 24//136
f 14//75 15//82 29//152
f 14//72 23//123 15//76
f 15//79 23//129 21//111
f 16//85 22//115 13//67
f 16//89 30//162 15//84
f 22//120 53//294 24//135
f 23//130 55//307 21//114
f 29//153 15//83 30//161
f 30//156 16//87 13//68
f 30//163 35//203 29//154
f 30//164 38//215 36//207
f 35//201 30//157 36//206
f 38//214 30//158 39//219
f 53//292 22//117 56//308
f 53//295 56//312 60//332
f 55//300 23//124 54//296
f 55//306 59//327 56//311
f 59//323 55//303 54//297
f 59//329 66//380 60//336
f 60//333 56//313 59//328
f 66//374 59//325 65//372
f 66//378 69//393 60//334
f 69//391 66//376 68//388
s 5
f 4//27 32//183 8//48
f 14//74 32//180 23//125
f 23//126 32//182 25//140
f 23//127 62//353 54//298
f 25//139 32//181 4//26
f 25//143 62//354 23//128
f 29//151 32//176 14//73
f 29//155 35//204 32//186
f 34//197 32//179 35//200
f 44//250 62//352 25//142
f 48//270 62//351 44//249
f 54//299 62//355 59//326
f 62//358 64//368 59//330
f 65//371 59//324 64//366
g Cube1_default3
usemtl default3
s 1
f 15//80 17//93 16//88
f 17//90 15//77 18//96
f 56//310 57//317 55//305
f 58//320 55//301 57//314
s 2
f 17//94 19//103 20//107
f 18//98 19//100 17//91
f 19//105 57//319 20//109
f 57//315 19//102 58//322
s 3
f 15//78 19//99 18//97
f 17//92 22//116 16//86
f 20//110 22//122 17//95
f 20//108 57//318 22//119
f 21//113 19//106 15//81
f 21//112 55//304 19//104
f 56//309 22//118 57//316
f 58//321 19//101 55//302
